<?xml version="1.0" encoding="UTF-8"?>
<svg width="74px" height="42px" viewBox="0 0 74 42" version="1.1" xmlns="http://www.w3.org/2000/svg" xmlns:xlink="http://www.w3.org/1999/xlink">
    <!-- Generator: Sketch 50.2 (55047) - http://www.bohemiancoding.com/sketch -->
    <title>logo/blue</title>
    <desc>Created with Sketch.</desc>
    <defs></defs>
    <g id="Page-1" stroke="none" stroke-width="1" fill="none" fill-rule="evenodd">
        <g id="Artboard-2">
            <g id="logo/blue">
                <g id="Citi-logo">
                    <path d="M20.1991122,33.7342564 L20.083961,33.852359 C18.2061659,35.7631795 16.0273171,36.7729744 13.7824098,36.7729744 C9.09550244,36.7729744 5.69330732,33.2754872 5.69330732,28.4562564 C5.69330732,23.6363077 9.09550244,20.1381026 13.7824098,20.1381026 C16.0273171,20.1381026 18.2061659,21.1486154 20.083961,23.0612308 L20.1991122,23.1778974 L23.2175902,19.5522564 L23.1388976,19.4574872 C20.6340878,16.5103077 17.6210244,15.0769231 13.9296878,15.0769231 C10.2184976,15.0769231 6.8256878,16.3128718 4.37538537,18.5568205 C1.72438049,20.9849231 0.323795122,24.4073846 0.323795122,28.4562564 C0.323795122,32.5047692 1.72438049,35.9268718 4.37538537,38.3556923 C6.8256878,40.599641 10.2184976,41.8355897 13.9296878,41.8355897 C17.6210244,41.8355897 20.6340878,40.4025641 23.1388976,37.4546667 L23.2175902,37.3595385 L20.1991122,33.7342564" id="Fill-1" fill="#003B70"></path>
                    <polygon id="Fill-2" fill="#003B70" points="26.2635024 41.3402051 31.5846439 41.3402051 31.5846439 15.4944103 26.2635024 15.4944103"></polygon>
                    <path d="M52.4465073,35.7204615 C51.0271512,36.5794872 49.7034537,37.0145641 48.5111512,37.0145641 C46.7871317,37.0145641 46.0186146,36.1149744 46.0186146,34.0986154 L46.0186146,20.3875897 L51.4332488,20.3875897 L51.4332488,15.5209744 L46.0186146,15.5209744 L46.0186146,7.47384615 L40.7952976,10.2555385 L40.7952976,15.5209744 L36.2928488,15.5209744 L36.2928488,20.3875897 L40.7952976,20.3875897 L40.7952976,34.9737949 C40.7952976,38.9497949 43.1676293,41.6661538 46.6990537,41.734 C49.1002634,41.7792308 50.5441659,41.0770769 51.4206146,40.5447179 L51.4722341,40.5134872 L52.7573073,35.5309231 L52.4465073,35.7204615" id="Fill-3" fill="#003B70"></path>
                    <polygon id="Fill-4" fill="#003B70" points="56.8536585 41.3402051 62.1784098 41.3402051 62.1784098 15.4944103 56.8536585 15.4944103"></polygon>
                    <path d="M65.5271805,11.3137949 C61.0875415,4.69358974 52.8872585,0.0204615385 44.1303512,0.0236923077 C35.5095317,0.0269230769 27.3114146,4.55825641 22.7255805,11.3137949 L28.844478,11.3137949 C33.0206049,7.03517949 38.4341561,4.70758974 44.1303512,4.70435897 C49.7233073,4.70148718 55.2252976,7.03517949 59.4082829,11.3137949 L65.5271805,11.3137949" id="Fill-5" fill="#D9252A"></path>
                    <path d="M71.7374049,9.21523077 C71.7374049,9.51569231 71.5284,9.64671795 71.2497268,9.64671795 L70.4436683,9.64671795 L70.4436683,8.78410256 L71.2497268,8.78410256 C71.5284,8.78410256 71.7374049,8.93020513 71.7374049,9.21523077 Z M72.2644293,9.19979487 C72.2644293,8.56835897 71.8074341,8.28333333 71.2656098,8.28333333 L69.9249463,8.28333333 L69.9249463,11.3177436 L70.4436683,11.3177436 L70.4436683,10.1471282 L71.0324195,10.1471282 L71.6291122,11.3177436 L72.2409659,11.3177436 L71.6143122,10.0932821 C72.0084976,9.97769231 72.2644293,9.67723077 72.2644293,9.19979487 Z M73.7823317,9.8545641 C73.7823317,8.2754359 72.5741463,7.07430769 70.9865756,7.07430769 C69.3990049,7.07430769 68.1897366,8.2754359 68.1897366,9.8545641 C68.1897366,11.4333333 69.3990049,12.6348205 70.9865756,12.6348205 C72.5741463,12.6348205 73.7823317,11.4333333 73.7823317,9.8545641 Z M73.3329171,9.8545641 C73.3329171,11.1791795 72.3185756,12.1882564 70.9865756,12.1882564 C69.6542146,12.1882564 68.6387902,11.1791795 68.6387902,9.8545641 C68.6387902,8.52958974 69.6542146,7.52087179 70.9865756,7.52087179 C72.3185756,7.52087179 73.3329171,8.52958974 73.3329171,9.8545641 Z" id="Fill-6" fill="#000000"></path>
                </g>
            </g>
        </g>
    </g>
</svg>